<?xml version="1.0" standalone="no"?><!DOCTYPE svg PUBLIC "-//W3C//DTD SVG 1.1//EN" "http://www.w3.org/Graphics/SVG/1.1/DTD/svg11.dtd"><svg t="1735810812842" class="icon" viewBox="0 0 1024 1024" version="1.1" xmlns="http://www.w3.org/2000/svg" p-id="1424" width="32" height="32" xmlns:xlink="http://www.w3.org/1999/xlink"><path d="M511.52136372 24.45675482c-271.2504285 0-491.31448136 220.06405286-491.68810454 491.68810453C19.83325918 787.39528783 239.89731205 1007.45934071 511.52136372 1007.83296389c271.2504285 0 491.31448136-220.06405286 491.68810453-491.68810454-0.37362317-271.62405167-220.43767604-491.68810453-491.68810453-491.68810453zM702.44280856 742.18688309c-34.74695571 34.74695571-164.02057591 1.8681159-291.42608019-125.5373884-127.77912747-127.77912747-160.28434411-256.67912447-125.53738839-291.42608018 29.88985438-29.88985438 66.87854918-82.57072273 121.80115659-14.19768085 54.92260742 68.37304189 27.64811531 87.42782406-3.36260861 118.43854798-21.67014442 21.67014442 23.53826032 76.59275185 70.61478097 123.6692725 47.45014382 47.45014382 101.99912807 92.2849254 123.66927249 70.61478097 31.01072392-31.01072392 50.06550608-58.28521604 118.43854797-3.36260862 68.74666507 55.29623061 16.06579673 91.53767904-14.19768083 121.8011566z" fill="#0BDD2F" p-id="1425"></path></svg>